<svg width="24" height="24" viewBox="0 0 24 24" fill="none" xmlns="http://www.w3.org/2000/svg">
<path fill-rule="evenodd" clip-rule="evenodd" d="M16 3H8C5.23858 3 3 5.23858 3 8V16C3 18.7614 5.23858 21 8 21H16C18.7614 21 21 18.7614 21 16V8C21 5.23858 18.7614 3 16 3ZM19.2501 16C19.2446 17.7926 17.7927 19.2445 16.0001 19.25H8.00008C6.20744 19.2445 4.75557 17.7926 4.75008 16V8C4.75557 6.20736 6.20744 4.75549 8.00008 4.75H16.0001C17.7927 4.75549 19.2446 6.20736 19.2501 8V16ZM16.75 8.25C17.3023 8.25 17.75 7.80229 17.75 7.25C17.75 6.69772 17.3023 6.25 16.75 6.25C16.1977 6.25 15.75 6.69772 15.75 7.25C15.75 7.80229 16.1977 8.25 16.75 8.25ZM12 7.5C9.51472 7.5 7.5 9.51472 7.5 12C7.5 14.4853 9.51472 16.5 12 16.5C14.4853 16.5 16.5 14.4853 16.5 12C16.5027 10.8057 16.0294 9.65957 15.1849 8.81508C14.3404 7.97059 13.1943 7.49734 12 7.5ZM9.25008 12C9.25008 13.5188 10.4813 14.75 12.0001 14.75C13.5189 14.75 14.7501 13.5188 14.7501 12C14.7501 10.4812 13.5189 9.25 12.0001 9.25C10.4813 9.25 9.25008 10.4812 9.25008 12Z" fill="black"/>
</svg>
