<svg width="24" height="24" viewBox="0 0 24 24" fill="none" xmlns="http://www.w3.org/2000/svg">
<path fill-rule="evenodd" clip-rule="evenodd" d="M5 3H19C20.1046 3 21 3.89543 21 5V19C21 20.1046 20.1046 21 19 21H5C3.89543 21 3 20.1046 3 19V5C3 3.89543 3.89543 3 5 3ZM8 18C8.27614 18 8.5 17.7761 8.5 17.5V10.5C8.5 10.2239 8.27614 10 8 10H6.5C6.22386 10 6 10.2239 6 10.5V17.5C6 17.7761 6.22386 18 6.5 18H8ZM7.24992 9C6.42149 9 5.74992 8.32843 5.74992 7.5C5.74992 6.67157 6.42149 6 7.24992 6C8.07835 6 8.74992 6.67157 8.74992 7.5C8.74992 8.32843 8.07835 9 7.24992 9ZM17.5001 18C17.7762 18 18.0001 17.7761 18.0001 17.5V12.9C18.0325 11.3108 16.8577 9.95452 15.2801 9.76C14.1771 9.65925 13.1083 10.1744 12.5001 11.1V10.5C12.5001 10.2239 12.2762 10 12.0001 10H10.5001C10.2239 10 10.0001 10.2239 10.0001 10.5V17.5C10.0001 17.7761 10.2239 18 10.5001 18H12.0001C12.2762 18 12.5001 17.7761 12.5001 17.5V13.75C12.5001 12.9216 13.1717 12.25 14.0001 12.25C14.8285 12.25 15.5001 12.9216 15.5001 13.75V17.5C15.5001 17.7761 15.7239 18 16.0001 18H17.5001Z" fill="black"/>
</svg>
